<svg xmlns="http://www.w3.org/2000/svg" viewBox="0 0 400 400" width="400" height="400">
	<style>
		tspan { white-space:pre }
		.shp0 { fill: #5f5f5f } 
		.shp1 { fill: #c4c4c4 } 
		.shp2 { fill: #ffffff } 
		.shp3 { fill: #cd0000 } 
		.shp4 { fill: #680007 } 
		.shp5 { fill: #aeaeae } 
	</style>
	<g id="Shape 5 copy 3">
		<path id="Path 0" class="shp0" d="M196.4 7C196.73 7.55 196.4 8.34 195.66 8.75C194.92 9.16 192.38 12.88 190.01 17C187.64 21.13 181.87 30.13 177.19 37C172.51 43.88 166.51 52.54 163.84 56.25C161.18 59.96 158.44 63 157.75 62.99C157.06 62.99 148.63 59.14 139 54.45C129.38 49.76 118.35 44.4 114.5 42.54C110.65 40.67 106.92 39.45 106.2 39.82C105.49 40.2 104.24 42.52 103.43 45C102.01 49.3 102.06 49.74 104.49 55C105.89 58.02 109.39 64.82 112.27 70.09C115.14 75.36 118.85 81.85 120.5 84.51C122.15 87.17 125.75 92.81 128.5 97.05C133.06 104.07 133.35 104.85 131.75 105.87C130.69 106.56 129.99 108.28 129.97 110.25C129.94 112.68 128.57 115.14 124.55 120C121.59 123.58 103.16 145.18 83.6 168C54.14 202.36 48.01 210.02 47.99 212.5C47.97 215.02 49.64 217.1 58.45 225.5C64.21 231 68.93 235.95 68.93 236.5C68.93 237.05 72.36 240.88 76.54 245C80.71 249.13 90.07 259.45 97.32 267.95C104.57 276.45 112.34 285.45 114.58 287.95C116.83 290.45 120.04 294.52 121.72 297C123.39 299.48 125.75 302.4 126.94 303.5C128.14 304.6 129.96 307.3 131 309.5C132.04 311.7 135.72 316.61 139.19 320.42C142.66 324.22 147.75 330.59 150.5 334.58C153.25 338.56 158.33 345.35 161.79 349.66C165.25 353.97 170.52 360.65 173.51 364.5C176.49 368.35 182.66 376.63 187.22 382.91C191.77 389.18 196.18 394.77 197 395.32C198.14 396.08 199.83 395.27 204.07 391.91C208.3 388.56 212.08 383.78 219.81 372C225.4 363.48 233.02 352.57 236.74 347.76C240.46 342.96 248.45 332.2 254.5 323.86C260.55 315.51 268.45 305.04 272.06 300.59C275.66 296.14 279.87 291.15 281.41 289.5C282.95 287.85 290.8 278.66 298.86 269.07C306.91 259.48 315.98 249.11 319 246.03C322.02 242.95 325.71 238.87 327.18 236.97C328.66 235.06 332.39 230.8 335.47 227.5C338.55 224.2 341.05 221.05 341.01 220.5C340.98 219.95 342.1 218.38 343.5 217C344.91 215.61 346.04 213.39 346.03 212C346.01 210.63 343.78 205.9 341.06 201.5C338.34 197.1 333.78 191.03 330.93 188C328.07 184.97 322.3 178.68 318.09 174C313.88 169.32 303.95 157.63 296.01 148C288.07 138.38 281.22 130.39 280.79 130.25C280.35 130.11 277.6 126.74 274.67 122.75C271.25 118.09 269.12 114.07 268.7 111.5C268.35 109.3 267.15 106.71 266.03 105.75C264.91 104.79 263.98 103.66 263.96 103.25C263.93 102.84 264.67 101.83 265.59 101C266.52 100.17 268.85 97.03 270.78 94C272.7 90.97 277.18 82.88 280.73 76C284.27 69.13 287.97 62.38 288.95 61C289.93 59.63 291.47 57.04 292.37 55.25C293.66 52.68 294.59 50.91 294 45.76C293.52 41.61 294.3 37.51 293.5 37.51C292.81 37.52 286.29 40.81 281.75 43.01C277.21 45.22 272.71 47.02 271.75 47.01C270.79 47.01 269.84 47.34 269.64 47.75C269.45 48.16 264.39 51.24 258.39 54.59C252.4 57.93 246.04 61.2 244.25 61.84C241.72 62.74 240.64 62.72 239.38 61.75C238.49 61.06 232.11 52.17 225.21 42C218.31 31.83 210.38 19.55 207.59 14.71C202.77 6.4 202.32 5.93 199.15 5.96C197.19 5.98 196.05 6.41 196.4 7Z" />
		<path id="Path 2" class="shp1" d="M199.34 15.25C198.84 15.95 198.61 34.58 198.81 57.5L199.43 100.02C235.46 99.47 262.54 99.88 263.8 98.68C265.07 97.48 268.54 92.22 271.51 87C274.48 81.78 277.9 75.25 279.1 72.5C280.31 69.75 282.33 66.15 283.58 64.5C284.84 62.85 286.79 59.48 287.91 57C289.04 54.52 290.86 50.49 290.88 47.88C290.89 45.27 291.34 42.28 291.06 42.28C290.79 42.28 284.95 45.02 280 47.5C275.05 49.98 270.55 52 270 52C269.45 52 267.09 53.29 264.75 54.86C262.41 56.44 256.23 60.06 251 62.9C245.17 66.07 240.53 67.96 239 67.79C236.98 67.55 234.06 63.86 223.76 48.5C216.75 38.05 209.1 26.03 206.76 21.78C204.42 17.53 201.69 11.74 201.06 11.72C200.44 11.71 199.83 14.56 199.34 15.25Z" />
		<path id="Path 1" class="shp2" d="M197.13 12.57C196.11 13.93 193.85 18.79 193.9 19.22C193.96 19.65 187.47 29.9 179.5 42C171.53 54.1 163.99 64.91 162.75 66.02C161.51 67.13 159.6 68.01 158.5 67.98C157.4 67.95 151.55 65.22 145.5 61.92C139.45 58.61 131.13 54.34 127 52.41C122.88 50.49 117.03 47.6 114 45.99C110.97 44.38 108.16 43.05 107.75 43.03C107.34 43.01 107 44.8 107 47C107 49.2 107.47 52.24 108.05 53.75C108.63 55.26 110.83 59.42 112.94 63C115.04 66.58 120.5 76.03 125.06 84C129.61 91.97 134.28 99.31 135.42 100.29C137.17 101.8 138.53 101.97 144 101.38C147.57 100.99 157.25 100.6 165.5 100.51C173.75 100.42 197.87 100.13 198 100.02C198.13 99.91 197.86 79.38 197.73 56C197.5 14.42 198.93 10.15 197.13 12.57Z" />
		<path id="Path 4" class="shp3" d="M139.63 102.07C138.64 102.54 138.04 102.79 137.69 103.69C137.33 104.59 137.29 108.5 139.38 108.57C140.69 108.61 150.21 109.03 171.75 109.02L200 109C199.98 104.74 199.64 102.97 199.23 102.32C198.7 101.46 191.48 101.19 172.27 101.32C157.85 101.42 140.61 101.59 139.63 102.07Z" />
		<path id="Path 5" class="shp4" d="M200.25 102.07C199.69 102.51 200 105.24 200 106.75L200 109.5C242.24 108.33 260.3 108.15 260.57 107.87C260.85 107.59 263.43 104.44 261.29 102.73C257.9 100.02 251.84 101.36 249.57 101.02C247.65 100.72 234.97 101.02 222.09 101.01C201.66 101 201.38 101.19 200.25 102.07Z" />
		<path id="Path 6" class="shp1" d="M218.75 108.69C207.89 108.86 198.96 109.34 198.92 109.75C198.87 110.16 198.72 111.85 198.58 113.5C198.44 115.15 198.66 116.95 199.08 117.5C199.56 118.14 210.89 118.41 230.41 118.25L263.58 117.68C265 110.09 263.58 111.52 262.36 110.13C261.21 108.81 258.77 108.49 249.72 108.44C243.55 108.4 229.61 108.52 218.75 108.69Z" />
		<path id="Path 7" class="shp2" d="M135.19 110.26C134.63 110.94 134.38 112.63 134.63 114C134.94 115.69 135.96 116.73 137.79 117.2C139.28 117.59 153.41 117.81 169.2 117.7C196.97 117.51 198.54 118.56 199.06 116.63C199.36 115.53 198.98 113.16 198.99 112.75C198.99 112.34 199.36 110.64 198.53 109.82C197.26 108.55 191.36 109 166.1 109.01C143.57 109.02 135.95 109.33 135.19 110.26Z" />
		<path id="Path 9" class="shp3" d="M130.28 119.75C129.32 121.26 122.9 129.41 116.01 137.86C109.13 146.31 100.8 156.63 97.5 160.8C94.2 164.96 86.99 173.35 81.47 179.44C75.96 185.52 68.73 193.65 65.4 197.5C62.08 201.35 58.6 205.63 57.67 207C56.74 208.38 55.99 210.51 55.99 211.75C56 213.21 59.78 218.11 66.8 225.75C72.73 232.21 82.52 242.9 88.55 249.51C94.57 256.11 104.03 266.91 109.56 273.51C115.1 280.1 124.1 291.05 129.56 297.82C135.03 304.6 141.07 312.32 143 314.97C144.93 317.62 148.64 322.65 151.25 326.15C153.86 329.64 164.1 343.98 174 358C183.9 372.02 193.35 385.19 195 387.25C196.65 389.31 198.45 390.77 199 390.5C199.64 390.18 200.01 373.54 200.04 343.75C200.06 318.31 200.09 291.8 199.66 289.47C198.91 285.5 198.26 289.01 194.5 288.4C192.3 288.04 189.38 287.25 188 286.65C186.63 286.05 184 284.21 181.25 284.09C178.5 283.97 176.15 283.18 174.92 283.01C173.68 282.84 171 284.16 171 283.75C171 283.34 170.66 283.09 170.25 283.2C169.84 283.3 167.03 282.65 164 281.74C160.97 280.83 156.28 278.6 153.58 276.79C150.87 274.98 147.86 273.05 146.89 272.5C145.92 271.95 145.15 267.74 143.88 265.63C142.6 263.52 140.61 263.42 140.75 262.92C140.89 262.41 140.66 262.02 140.25 262.04C139.84 262.06 138.94 260.82 138.25 259.29C137.56 257.76 139.31 250.94 136.8 247.02C134.25 243.03 134.42 234.18 134 227.02C133.6 220.15 131.65 209.65 132.06 202.5C132.51 194.86 133.49 187.65 134.45 185C135.34 182.53 136.28 179.26 136.54 177.75C136.79 176.24 137.96 173.09 139.14 170.75C140.31 168.41 142.49 164.7 143.98 162.5C145.46 160.3 148.21 157.01 150.09 155.19C151.97 153.38 154.85 151.15 156.5 150.25C158.15 149.35 159.95 148.51 160.5 148.38C161.05 148.25 165.1 147.21 169.5 146.07C173.9 144.92 182.22 143.51 188 142.94C193.78 142.36 198.87 141.58 199.32 141.19C199.77 140.81 199.99 135.93 199.82 130.34C199.64 124.75 199.58 118.78 199.13 118.32C198.67 117.86 183.47 118.5 165.92 118.5C148.36 118.5 134 118.16 134 117.75C134 117.34 133.56 117 133.02 117C132.48 117 131.25 118.24 130.28 119.75Z" />
		<path id="Path 10" class="shp4" d="M199.97 118.75C199.56 119.44 199.59 125.29 199.56 131.15L199.5 141.81C211.13 142.85 217.88 143.83 222 144.66C226.13 145.49 232.2 147.43 235.5 148.98C239.44 150.83 243.39 153.83 247 157.7C250.03 160.95 253.7 165.83 255.18 168.55C256.65 171.27 259.22 178.45 260.89 184.5C262.57 190.55 264.2 199.32 264.51 204C264.83 208.68 265.3 213.74 265.55 215.25L266 218C221.44 217.99 206.47 218.26 204 218.59L199.5 219.2L199.5 275.04C208.8 274.14 214.43 273.47 218 272.98C221.57 272.48 230.13 270.45 237 268.46L249.5 264.85C252.95 269.23 254.52 271.56 255.22 272.85C256.34 274.9 256.25 275.38 254.5 276.64C253.4 277.44 248.9 279.17 244.5 280.5C240.1 281.82 232.45 283.59 227.5 284.42C222.55 285.25 214.68 286.4 210 286.98C205.32 287.56 200.26 287.62 199.83 288.02C199.41 288.42 199.85 311.66 199.72 338.74C199.58 370.81 199.13 390.43 199.78 390.72C200.33 390.97 202.88 387.23 204.57 385.19C206.26 383.16 210.05 377.9 212.99 373.5C215.94 369.1 222.64 359.43 227.9 352C233.16 344.57 241.52 333.05 246.48 326.39C251.44 319.74 258.27 310.51 261.65 305.89C265.03 301.28 274.67 289.18 283.07 279C291.47 268.82 304.46 253.52 311.95 245C319.43 236.47 328.44 225.9 331.96 221.5C335.48 217.1 338.84 212.92 339.43 212.21C340.23 211.24 339.73 210.11 337.44 207.71C335.76 205.94 332.41 201.8 330 198.5C327.6 195.2 321.06 187.32 315.49 181C309.92 174.68 297.8 160.28 288.57 149C279.34 137.72 270.14 126.15 268.14 123.29L264.5 118.08C208.47 118.01 200.54 117.79 199.97 118.75Z" />
		<path id="Path 10 copy" class="shp4" d="M199.97 118.75C199.56 119.44 199.59 125.29 199.56 131.15L199.5 141.81C211.13 142.85 217.88 143.83 222 144.66C226.13 145.49 232.2 147.43 235.5 148.98C239.44 150.83 243.39 153.83 247 157.7C250.03 160.95 253.7 165.83 255.18 168.55C256.65 171.27 259.22 178.45 260.89 184.5C262.57 190.55 264.2 199.32 264.51 204C264.83 208.68 265.3 213.74 265.55 215.25L266 218C221.44 217.99 206.47 218.26 204 218.59L199.5 219.2L199.5 275.04C208.8 274.14 214.43 273.47 218 272.98C221.57 272.48 230.13 270.45 237 268.46L249.5 264.85C252.95 269.23 254.52 271.56 255.22 272.85C256.34 274.9 256.25 275.38 254.5 276.64C253.4 277.44 248.9 279.17 244.5 280.5C240.1 281.82 232.45 283.59 227.5 284.42C222.55 285.25 214.68 286.4 210 286.98C205.32 287.56 201.15 288.37 200.72 288.77C200.3 289.17 199.85 311.66 199.72 338.74C199.58 370.81 199.13 390.43 199.78 390.72C200.33 390.97 202.88 387.23 204.57 385.19C206.26 383.16 210.05 377.9 212.99 373.5C215.94 369.1 222.64 359.43 227.9 352C233.16 344.57 241.52 333.05 246.48 326.39C251.44 319.74 258.27 310.51 261.65 305.89C265.03 301.28 274.67 289.18 283.07 279C291.47 268.82 304.46 253.52 311.95 245C319.43 236.47 328.44 225.9 331.96 221.5C335.48 217.1 338.84 212.92 339.43 212.21C340.23 211.24 339.73 210.11 337.44 207.71C335.76 205.94 332.41 201.8 330 198.5C327.6 195.2 321.06 187.32 315.49 181C309.92 174.68 297.8 160.28 288.57 149C279.34 137.72 270.14 126.15 268.14 123.29L264.5 118.08C208.47 118.01 200.54 117.79 199.97 118.75Z" />
		<path id="Path 11" class="shp2" d="M185.5 143.12C181.1 143.58 173.9 144.92 169.5 146.08C165.1 147.24 160.94 148.22 160.25 148.26C159.56 148.3 155.83 150.41 152.47 153.75C149.1 157.1 150.22 156.23 148.06 158.13C147.38 158.73 147.27 158.63 146.16 160C145.05 161.38 144.16 162.72 144.18 163C144.2 163.28 142.96 163.95 142.63 165.19C142.29 166.43 140.1 168.8 139 171C137.9 173.2 136.82 176.24 136.61 177.75C136.39 179.26 135.45 182.53 134.51 185C133.46 187.79 132.53 194.43 132.06 202.5C131.65 209.65 131.66 221.35 132.09 228.5C132.54 235.87 132.67 243.45 133.66 246.57C134.61 249.59 135.41 252.72 135.31 253.13C135.21 253.54 136.11 255.55 136.94 257.75C137.76 259.95 138.75 261.53 139.44 262.72C139.95 263.61 145.86 271.37 149.25 273.87C152.14 276.01 155.4 278.23 156.5 278.81C157.6 279.39 162.32 281 167 282.38C171.68 283.76 176.49 284.63 177.72 284.94C179.19 285.31 184.12 286.3 184.53 286.25C185.56 286.13 192.11 287.8 193.47 287.75C195.22 287.69 196.44 288.44 198.53 288.44L198.84 285.28L198.59 275.28C183.87 273.31 176.93 272.49 175 271.87C173.07 271.24 169.47 269.67 167 268.39C164.53 267.1 161.58 265.25 160.45 264.27C159.32 263.3 158.09 261.71 157.7 260.75C157.32 259.79 156.66 259.17 156.25 259.38C155.84 259.59 155.5 259.16 155.5 258.44C155.5 257.71 155.05 257.06 154.5 257C153.95 256.93 153.09 255.9 152.59 254.69C152.09 253.49 151.64 252.2 151.59 251.83C151.54 251.47 151.19 250.79 150.8 250.33C150.42 249.87 150.3 248.94 150.55 248.25C150.8 247.56 150.55 247 150 247C149.45 247 149.2 246.44 149.45 245.75C149.7 245.06 149.58 244.12 149.2 243.65C148.81 243.18 148.35 241.15 148.17 239.15C147.98 237.14 147.76 231.9 147.67 227.5L147.5 219.5C166.88 218.23 176.86 218.62 180.71 218.44C184.56 218.26 191.98 218.64 195.14 218.59L199.43 218.73C199.71 203.73 200.62 206.09 198 206.02C196.49 205.97 189.6 205.88 185.75 205.76C181.9 205.64 171.41 206.31 162.75 206.2L147 206C147.84 198.64 148.32 194.7 148.63 192.5C148.93 190.3 149.3 187.6 149.46 186.5C149.61 185.4 150.04 183.82 150.4 183C150.77 182.18 151.23 180.82 151.43 180C151.63 179.18 152.07 177.49 152.4 176.25C152.73 175.01 154.85 172.63 155.63 171.1C156.4 169.57 157.64 169.02 157.81 168.19C157.98 167.37 159.59 165.93 160.84 164.78C162.1 163.64 163.38 162.44 163.94 162C164.63 161.47 167.6 159.56 168.56 159.13C170.16 158.42 174.48 156.2 175.78 155.85C178.09 155.22 182.29 155.35 185.88 155.16C189.44 154.97 191.85 154.64 193.5 154.28C195.15 153.91 199.3 153.91 199.71 154.02C200.13 154.12 199.57 151.18 199.57 148.16C199.57 144.16 200.38 142.66 199.29 142.3C198.46 142.03 194.66 142.06 194.25 142.13C193.84 142.21 189.9 142.65 185.5 143.12Z" />
		<path id="Path 12" class="shp5" d="M200.14 141.87C200.8 142.44 198.65 154 201.57 153.87C208.29 153.59 209 153.59 211.86 154.16C215.95 154.98 221.3 156.88 223.5 157.66C225.7 158.44 229.25 160.3 231.39 161.79C233.52 163.28 236.65 166.53 238.33 169C240.01 171.47 242.19 176.2 243.18 179.5C244.17 182.8 245.23 188.43 245.53 192C245.83 195.57 246.29 200.19 246.54 202.25L247 206C204.52 205.61 199.21 205.75 199.43 206.16C199.65 206.57 199.42 218.05 199.14 218.16C198 218.6 222.99 218.03 238.25 218.02L266 218C265.3 213.74 264.83 208.68 264.51 204C264.2 199.32 262.57 190.55 260.89 184.5C259.22 178.45 256.65 171.27 255.18 168.55C253.7 165.83 250.03 160.95 247 157.7C243.39 153.83 239.44 150.83 235.5 148.98C232.2 147.43 226.13 145.47 222 144.63C217.88 143.79 210.22 142.82 205 142.47C198.44 142.04 199.32 141.16 200.14 141.87Z" />
		<path id="Shape 2" class="shp5" d="" />
		<path id="Path 13" class="shp3" d="M187.5 155.1C184.2 155.56 179.93 156.11 178 156.32C176.07 156.52 172.31 157.78 169.64 159.1C166.97 160.42 162.59 163.86 159.89 166.75C157.2 169.64 155.01 172.56 155.02 173.25C155.03 173.94 154.46 175.1 153.77 175.83C153.07 176.55 151.68 180.38 150.67 184.33C149.66 188.27 148.49 194.2 148.06 197.5C147.63 200.8 147.56 204.12 147.89 204.88C148.39 206.01 152.98 206.19 173.59 205.88L198.69 205.5C199.66 173.72 199.84 162.14 199.71 159.25C199.47 154.11 199.41 154 196.48 154.13C194.84 154.2 190.8 154.64 187.5 155.1Z" />
		<path id="Path 14" class="shp4" d="M200.35 155.1C199.94 155.71 199.47 167.41 199.3 181.1L199 206L247 206C246.28 199.41 245.81 194.8 245.49 191.5C245.18 188.2 244.21 183.03 243.35 180C242.49 176.97 240.53 172.47 238.99 170C237.45 167.53 234.46 164.18 232.35 162.56C230.23 160.94 226.93 158.97 225 158.19C223.07 157.4 218.13 156.15 214 155.41C209.88 154.67 205.28 154.05 203.8 154.03C202.31 154.02 200.76 154.5 200.35 155.1Z" />
		<path id="Path 16" class="shp3" d="M147.64 219.75C147.4 220.16 147.37 224.32 147.59 229C147.84 234.39 148.9 240.33 150.49 245.25C151.87 249.51 153.79 254.27 154.75 255.82C155.71 257.37 158.07 260.49 160 262.74C162.14 265.25 165.84 267.91 169.5 269.58C172.8 271.08 178.88 272.9 183 273.62C187.13 274.34 192.3 274.96 194.5 274.99C198.21 275.04 198.55 274.81 199.26 271.77C199.68 269.97 200.02 260.18 200.02 250C200.01 239.82 199.73 228.8 199.39 225.5L198.77 219.5C159.49 219.12 147.89 219.34 147.64 219.75Z" />
		<path id="Path 17" class="shp5" d="M236 268.64C229.68 270.52 221.57 272.48 218 272.98C214.43 273.48 208.46 274.14 204.75 274.45L198 275L198 285C198.41 285.44 197.81 287.95 198.38 287.85C198.91 287.75 205.32 287.56 210 286.98C214.68 286.4 222.55 285.24 227.5 284.41C232.45 283.57 239.65 281.97 243.5 280.84C247.35 279.7 251.74 278.15 253.25 277.39C254.76 276.63 256 275.55 256 275C256 274.45 254.65 271.98 253 269.5C251.35 267.02 249.44 265.05 248.75 265.11C248.06 265.16 242.32 266.75 236 268.64Z" />
	</g>
</svg>