<svg xmlns="http://www.w3.org/2000/svg" viewBox="0 0 400 400" width="400" height="400">
	<style>
		tspan { white-space:pre }
		.shp0 { fill: #ffffff } 
		.shp1 { fill: #c4c4c4 } 
		.shp2 { fill: #aeaeae } 
		.shp3 { fill: #cd0000 } 
		.shp4 { fill: #680007 } 
	</style>
	<g id="Shape 5 copy 2">
		<path id="Path 0" class="shp0" d="M198.02 5.25C198.03 5.94 196.6 8.75 194.84 11.5C193.07 14.25 190.06 18.98 188.14 22C186.22 25.02 182.7 30.42 180.31 34C177.93 37.58 173.39 44.27 170.24 48.89C167.08 53.5 163.71 57.66 162.75 58.14C161.64 58.68 160 58.5 158.25 57.62C156.74 56.86 152.8 54.78 149.5 52.99C146.2 51.21 141.7 48.85 139.5 47.75C137.3 46.64 134.26 44.9 132.75 43.87C131.24 42.84 129.32 42 128.5 42C127.67 42 123.4 39.98 119 37.5C114.6 35.02 110.55 33 110 33C109.45 33 108.93 34.01 108.85 35.25C108.77 36.49 108.83 39.08 108.98 41C109.13 42.92 110.04 45.63 111.01 47C111.98 48.38 114.36 51.98 116.29 55C118.23 58.02 120.45 62.08 121.23 64C122.01 65.92 124.83 70.88 127.5 75C130.17 79.13 132.9 83.85 133.58 85.5C134.26 87.15 135.64 89.22 136.65 90.1C137.67 90.98 139.4 91.99 140.5 92.35C141.61 92.72 143.12 92.45 143.9 91.75C144.92 90.84 152.79 90.36 172.9 90L200.5 89.5C200.88 9.93 200.7 4 199.45 4C198.65 4 198.01 4.56 198.02 5.25Z" />
		<path id="Path 1" class="shp1" d="M200.98 5.75C200.97 6.71 200.85 26.06 200.73 48.75C200.6 71.44 200.84 90 201.25 90C201.66 90 202.22 89.55 202.5 89C202.81 88.38 211.17 88 224.5 88C237.83 88 246.19 88.38 246.5 89C246.78 89.55 248.91 90 251.25 89.99C253.59 89.99 256.4 90.64 257.5 91.44C259.26 92.72 259.91 92.69 262.93 91.19C265.41 89.97 267.5 87.49 270.43 82.3C272.67 78.33 275.9 72.71 277.6 69.8C279.31 66.88 281.22 62.81 281.85 60.75C282.48 58.69 283.45 56.77 284 56.5C284.55 56.23 286.51 53.41 288.36 50.25C290.21 47.09 291.85 42.92 292.01 41C292.16 39.08 292.23 36.49 292.15 35.25C292.07 34.01 291.55 33 291 33C290.45 33 286.4 35.02 282 37.5C277.6 39.98 273.1 42 272 42C270.9 42 269.77 42.45 269.5 43C269.23 43.55 264.26 46.59 258.47 49.75C252.68 52.91 246.49 56.28 244.72 57.23C241.99 58.69 241.19 58.75 239.5 57.64C238.4 56.91 235.61 53.43 233.3 49.91C230.99 46.38 226.79 40.13 223.98 36C221.17 31.88 217.87 26.93 216.65 25C215.43 23.07 212.31 18.01 209.71 13.75C207.12 9.49 205 5.55 205 5C205 4.45 204.1 4 203 4C201.77 4 200.99 4.67 200.98 5.75Z" />
		<path id="Path 2" class="shp2" d="M202.55 89C202.21 89.62 192.41 90.05 176.75 90.14C162.86 90.21 152.4 90.44 153.5 90.65C154.6 90.85 177.77 91.15 205 91.3C232.23 91.45 255.63 91.93 257 92.36C259.43 93.13 259.44 93.1 257.5 91.56C256.37 90.66 253.65 89.97 251.25 89.98C248.91 89.99 246.78 89.55 246.5 89C246.19 88.38 237.85 88 224.55 88C211.28 88 202.89 88.38 202.55 89Z" />
		<path id="Path 3" class="shp3" d="M148 92.07C146.07 92.56 144.5 93.08 144.5 93.23C144.5 93.38 143.99 94.4 143.38 95.5C142.34 97.36 142.63 97.55 147.38 98.24C150.19 98.65 163.64 98.99 177.25 98.99L202 99L201.5 91.5C162.75 91.26 149.93 91.59 148 92.07Z" />
		<path id="Path 4" class="shp4" d="M202 95L202 99C239.59 98.98 252.19 98.76 254.25 98.49C257.97 98 257.99 97.98 256.64 95.25C255.89 93.74 254.54 92.16 253.64 91.75C252.74 91.34 240.75 91 227 91L202 91L202 95Z" />
		<path id="Path 5" class="shp0" d="M137.93 99.5C136.21 100.31 135.93 101.07 136.44 103.5C136.78 105.15 137.39 106.85 137.78 107.27C138.18 107.69 152.22 108.01 169 107.97C185.78 107.92 199.84 107.69 200.25 107.45C200.66 107.2 201 105.42 201 103.5C201 101.58 200.44 99.8 199.75 99.56C199.06 99.32 185.35 98.98 169.28 98.81C151.2 98.62 139.24 98.88 137.93 99.5Z" />
		<path id="Path 6" class="shp1" d="M227 98.75L200.5 99.03C200.69 106.54 201.21 108.5 201.87 108.5C202.49 108.5 216.72 108.39 233.5 108.25L264 108C265.58 102.96 266.04 101.28 266.05 101C266.05 100.72 264.92 99.94 263.53 99.25C262.14 98.56 259.31 98.1 257.25 98.23C255.19 98.36 241.57 98.59 227 98.75Z" />
		<path id="Path 7" class="shp2" d="M265 104.5C265 105.33 264.21 106.76 263.25 107.69C261.58 109.31 261.58 109.36 263.25 108.69C264.21 108.31 265.45 108 266 108C266.55 108 267 106.88 267 105.5C267 104.13 266.55 103 266 103C265.45 103 265 103.67 265 104.5Z" />
		<path id="Path 8" class="shp3" d="M133 108.2C132.23 108.86 131.7 109.87 131.83 110.45C131.95 111.03 130.13 113.55 127.78 116.06C125.43 118.57 120.8 124.15 117.5 128.45C114.2 132.75 110.3 137.67 108.83 139.39C107.36 141.1 103.76 145.37 100.83 148.87C97.9 152.37 94.54 156.65 93.38 158.37C92.21 160.09 89.73 162.89 87.88 164.59C86.02 166.28 80.67 172.11 76 177.53C71.33 182.95 65.36 189.77 62.75 192.69C59 196.88 58 198.74 58 201.5C58 204.62 59.19 206.19 69 216C75.05 222.05 80.01 227.34 80.02 227.75C80.04 228.16 83.08 231.69 86.77 235.59C90.47 239.49 96.04 245.57 99.15 249.09C102.27 252.62 106.09 257.07 107.65 259C109.22 260.93 112.07 264.23 114 266.34C115.92 268.45 117.91 270.92 118.41 271.84C118.92 272.75 120.27 274.4 121.41 275.5C122.56 276.61 127.55 282.81 132.5 289.3C137.45 295.78 141.84 301.07 142.25 301.04C142.66 301.02 143.54 302.24 144.19 303.75C144.85 305.26 148 309.54 151.19 313.25C154.39 316.96 156.98 320.34 156.97 320.75C156.95 321.16 158.18 323.14 159.72 325.14C161.25 327.14 163.18 329.78 164 331.01C164.82 332.23 167.53 336.15 170 339.7C172.47 343.26 176.3 348.49 178.5 351.32C180.7 354.15 184.38 359.4 186.67 362.99C188.97 366.57 192.33 371.52 194.13 374C195.94 376.48 198.23 379.29 199.21 380.25C200.75 381.75 201.07 381.79 201.5 380.5C201.78 379.68 202.02 356.84 202.06 329.75C202.1 290.41 201.85 280.28 200.81 279.4C200.09 278.8 194.78 277.74 189 277.06C183.22 276.37 174.68 274.91 170 273.82C164.28 272.49 159.7 270.67 156 268.24C152.97 266.26 149.03 263.03 147.23 261.07C145.43 259.11 142.91 255.47 141.62 253C140.33 250.53 138.58 246.25 137.74 243.5C136.89 240.75 135.59 234.9 134.85 230.5C134.08 225.97 133.5 215.13 133.5 205.5C133.5 195.36 134.04 185.68 134.85 181.5C135.59 177.65 136.78 172.47 137.5 170C138.21 167.53 139.79 163.25 141 160.5C142.21 157.75 145.1 153.03 147.43 150C149.77 146.97 153.88 143.08 156.59 141.34C159.29 139.6 164.65 137.29 168.5 136.2C172.35 135.12 181.47 133.61 188.76 132.86L202.02 131.5C202.08 113.67 201.7 110.13 200.79 109.26C199.82 108.34 192.13 108.04 170 108.09C153.78 108.12 139.71 108.57 138.75 109.08C137.48 109.74 136.86 109.58 136.5 108.5C136.22 107.67 135.64 107 135.2 107C134.76 107 133.77 107.54 133 108.2Z" />
		<path id="Path 9" class="shp4" d="M202.53 108.63C202.06 109.02 201.74 114.43 201.83 120.67L202 132C208.59 132.71 213.65 133.18 217.5 133.51C221.35 133.84 227.88 135.25 232 136.64C236.13 138.02 241.53 140.69 244 142.57C246.47 144.45 250.27 148.35 252.44 151.24C254.6 154.13 257.39 158.75 258.65 161.5C259.9 164.25 261.66 169.65 262.55 173.5C263.45 177.35 264.64 181.85 265.2 183.5C265.75 185.15 266.5 191.34 266.85 197.25L267.5 208.01L202 208L202 265C214.01 264.07 220.65 263.2 224.5 262.47C228.35 261.74 235.78 259.77 241 258.09C246.22 256.41 250.84 255.02 251.25 255.02C251.66 255.01 253.35 257.02 255 259.5C256.65 261.98 258.02 264.56 258.03 265.25C258.05 265.94 255.46 267.5 252.28 268.73C249.1 269.95 242.45 271.82 237.5 272.88C232.55 273.95 224.45 275.32 219.5 275.94C214.55 276.56 208.59 277.27 206.25 277.53L202 278C201.83 352.01 201.87 374.63 201.99 376C202.1 377.38 202.41 378.73 202.68 379C202.94 379.27 204.59 377.86 206.33 375.85C208.07 373.83 211.74 368.66 214.48 364.35C217.22 360.03 220.87 354.7 222.58 352.5C224.3 350.3 228.56 344.23 232.04 339C235.53 333.77 239.67 327.93 241.25 326C242.83 324.07 246 320.02 248.3 317C250.6 313.98 254.18 309.02 256.25 306C258.32 302.98 261.84 298.02 264.06 295C266.28 291.98 269.56 287.93 271.36 286C273.15 284.07 275.94 280.57 277.56 278.21C279.18 275.85 280.73 273.93 281 273.95C281.27 273.97 284.2 270.55 287.5 266.35C290.8 262.16 295.3 256.6 297.5 254.02C299.7 251.43 305.1 245.09 309.5 239.93C313.9 234.76 320.76 227.04 324.75 222.77C328.74 218.5 331.99 214.66 331.98 214.25C331.97 213.84 333.23 212.15 334.79 210.5C336.34 208.85 338.6 206.04 339.81 204.25L342 201C337.71 195.96 334.93 192.25 333.05 189.5C331.17 186.75 327.52 182.25 324.94 179.5C322.36 176.75 317.4 171.13 313.92 167C310.43 162.88 307.28 159.28 306.91 159C306.55 158.72 301.94 153.1 296.67 146.5C291.41 139.9 285.06 132.03 282.56 129C280.07 125.97 276.32 121.47 274.25 119C272.17 116.53 269.57 113.06 268.48 111.3L266.5 108.09C217.59 107.97 203.01 108.25 202.53 108.63Z" />
		<path id="Path 10" class="shp0" d="M184 133.51C178.78 134.22 171.8 135.69 168.5 136.76C165.2 137.83 160.7 139.83 158.5 141.2C156.3 142.56 152.55 145.89 150.17 148.59C147.78 151.29 144.07 157.1 141.91 161.5C139.75 165.9 137.02 173.1 135.83 177.5C133.99 184.33 133.66 188.35 133.59 205C133.52 220.2 133.89 226.21 135.25 232.25C136.21 236.51 138.49 243.26 140.32 247.25C142.14 251.24 145.35 256.75 147.44 259.5C149.54 262.25 153.33 265.74 155.88 267.25C158.42 268.77 162.75 270.71 165.5 271.58C168.25 272.44 173.43 273.64 177 274.23C180.57 274.83 187.32 275.35 192 275.41L200.5 275.5L200.5 265.5C185 263.7 177.38 262.13 173.57 260.84C168.7 259.2 165.17 257.16 161.73 254C158.92 251.43 155.78 247.25 154.41 244.25C153.08 241.36 151.32 235.85 150.5 232C149.68 228.15 149 221.18 149 216.5L149 208L200.5 207.5L200.5 196.5L149 196C149.01 191.74 149.61 186.45 150.33 181.5C151.17 175.83 152.78 170.1 154.7 166C156.38 162.43 159.09 157.7 160.72 155.5C162.46 153.16 165.94 150.36 169.1 148.76C173.45 146.55 176.84 145.8 186.5 144.89C193.1 144.27 199.06 143.6 199.75 143.38C200.59 143.13 200.92 141.26 200.75 137.75L200.5 132.5C195.07 132.28 189.22 132.8 184 133.51Z" />
		<path id="Path 11" fill-rule="evenodd" class="shp2" d="M201.4 132C201.9 132 207.3 132.47 213.4 133.04C220.13 133.67 227.45 135.08 232 136.62C236.13 138.02 241.53 140.69 244 142.57C246.47 144.45 250.27 148.35 252.44 151.24C254.6 154.13 257.39 158.75 258.65 161.5C259.9 164.25 261.66 169.65 262.55 173.5C263.45 177.35 264.64 181.85 265.2 183.5C265.75 185.15 266.5 191.34 267.5 208.01L234.75 208C216.74 208 202 208.34 202 208.75C202 209.16 190.41 209.5 150.5 209.5L149.34 227.5L149.5 208.5L200.5 207.5L200.5 195.89L248.5 195.5L248.24 188.5C248.1 184.65 247.31 178.46 246.49 174.75C245.67 171.04 244.11 166.09 243.01 163.75C241.92 161.41 239.67 157.81 238.01 155.75C236.23 153.53 232.46 150.78 228.75 149C224.21 146.83 220.03 145.75 213.5 145.06C208.55 144.54 203.6 144.34 202.5 144.61C200.65 145.07 200.5 144.6 200.5 138.55C200.5 134.95 200.91 132 201.4 132ZM162.5 137.99C163.05 137.99 160.94 139.68 157.81 141.74C154.69 143.81 150.57 147.53 148.67 150C146.77 152.47 143.59 157.88 141.6 162C139.61 166.13 137.98 169.05 137.97 168.5C137.96 167.95 139.09 164.91 140.47 161.75C141.86 158.59 144.91 153.48 147.25 150.39C149.58 147.3 153.75 143.25 156.5 141.39C159.25 139.52 161.95 137.99 162.5 137.99ZM197.5 144.24L194.5 145C192.85 145.42 188.8 145.74 179.5 145.66L185.5 145C188.8 144.63 192.85 144.31 197.5 144.24Z" />
		<path id="Path 12" class="shp3" d="M194.5 145C192.85 145.42 188.8 145.82 185.5 145.88C182.2 145.94 177.03 146.9 174 148.01C170.97 149.12 166.93 151.3 165 152.85C163.07 154.41 159.89 158.34 157.93 161.59C155.96 164.84 153.84 169.53 153.21 172C152.58 174.47 151.56 178.97 150.95 182C150.33 185.03 149.97 189.3 150.16 191.5L150.5 195.5L201.5 195.5C201.93 151.42 201.69 145.33 200.74 144.77C200.06 144.36 199.05 144.08 198.5 144.13C197.95 144.19 196.15 144.58 194.5 145Z" />
		<path id="Path 13" class="shp4" d="M202.45 144.7C202.02 145.05 201.74 156.73 201.83 170.67L202 196L248.5 195.5C248.1 184.65 247.33 178.57 246.54 175C245.75 171.43 244.44 166.93 243.63 165C242.83 163.07 240.78 159.59 239.08 157.25C237.39 154.91 233.64 151.66 230.75 150.02C227.86 148.38 223.25 146.62 220.5 146.1C217.75 145.58 212.74 144.91 209.37 144.61C206 144.31 202.88 144.35 202.45 144.7Z" />
		<path id="Path 14" class="shp2" d="M170.25 148.51C167.36 149.88 163.67 152.46 162.05 154.25C160.42 156.04 157.93 159.75 156.51 162.5C155.09 165.25 154.51 166.67 155.21 165.65C155.92 164.63 157.74 161.81 159.25 159.4C160.76 156.98 163.91 153.63 166.25 151.95C168.59 150.28 172.19 148.48 174.25 147.95C176.31 147.43 178 146.78 178 146.5C178 146.22 177.44 146 176.75 146.01C176.06 146.02 173.14 147.14 170.25 148.51ZM152.33 171.74C151.69 173.81 150.92 177.53 150.62 180L150.08 184.5C151.63 178.3 152.44 174.77 152.88 172.65C153.33 170.54 153.64 168.62 153.59 168.4C153.53 168.17 152.97 169.68 152.33 171.74Z" />
		<path id="Path 15" class="shp3" d="M150.52 209.65C150.05 210.03 149.74 213.86 149.83 218.17C149.93 222.47 150.51 228.14 151.14 230.75C151.77 233.36 153.23 238.06 154.39 241.19C155.55 244.32 158.3 249.02 160.5 251.64C163.42 255.11 166.46 257.29 171.75 259.7C177.06 262.12 181.61 263.31 188.75 264.16C194.11 264.79 199.29 265.02 200.25 264.66C201.87 264.05 201.98 261.92 201.75 236.75L201.5 209.5C162.65 209.09 150.98 209.27 150.52 209.65Z" />
		<path id="Path 16" class="shp2" d="M150.51 231.5C150.81 233.7 152.05 238.16 153.27 241.42C154.69 245.19 157.25 249.18 160.34 252.42L165.17 257.5C158.73 249.75 155.76 244.8 154.42 241.5C153.07 238.2 151.95 234.6 151.91 233.5C151.88 232.4 151.44 230.6 150.92 229.5C150.23 228.02 150.12 228.55 150.51 231.5ZM137.46 243C137.86 244.38 139.46 248.2 141.03 251.5C142.6 254.8 145.53 259.3 147.54 261.5C149.55 263.7 150.86 264.82 150.44 264C150.03 263.18 148.09 260.48 146.13 258C144.18 255.53 141.5 250.8 140.19 247.5C138.87 244.2 137.56 241.28 137.28 241C136.99 240.72 137.07 241.63 137.46 243ZM240.5 258.17C235.55 259.8 227.9 261.81 223.5 262.64C219.1 263.46 212.13 264.32 208 264.53L200.5 264.92C201.04 270.79 200.93 273.51 200.6 274.75C200.03 276.88 199.6 276.98 192.75 276.56L185.5 276.11C195.57 277.68 199.29 278.55 200.25 279.06C201.37 279.67 202 279.64 202 279C202 278.45 203.91 277.79 206.25 277.53C208.59 277.27 214.55 276.56 219.5 275.94C224.45 275.32 232.55 273.95 237.5 272.88C242.45 271.82 249.1 269.95 252.28 268.73C255.46 267.5 258.05 265.94 258.03 265.25C258.02 264.56 256.65 261.98 255 259.5C253.35 257.02 251.44 255.04 250.75 255.1C250.06 255.15 245.45 256.53 240.5 258.17ZM174.5 274.95C176.15 275.4 179.07 275.83 181 275.91C182.93 275.99 184.28 275.87 184 275.65C183.72 275.43 180.8 275 177.5 274.69C173.55 274.33 172.53 274.41 174.5 274.95Z" />
	</g>
</svg>